# Blender v2.77 (sub 0) OBJ File: ''
# www.blender.org
mtllib angledCube.mtl
o Cube
v 0.759796 1.189282 -1.337907
v 0.807089 1.156167 -1.419557
v -0.004532 0.097710 -0.005343
v -0.004070 -0.002289 -0.005343
v -1.548248 1.178632 -0.005343
v -1.642374 1.144864 -0.005343
v -0.783921 2.270205 -1.337907
v -0.831214 2.303320 -1.419557
v 1.524123 2.280854 -0.005343
v 1.618249 2.314622 -0.005343
v 0.759795 1.189282 1.327221
v 0.807088 1.156167 1.408871
v -0.783921 2.270205 1.327221
v -0.831215 2.303320 1.408870
v -0.019594 3.361777 -0.005343
v -0.020055 3.461776 -0.005343
v 0.722206 1.172442 -1.343377
v -0.024980 0.105351 -0.040698
v -1.534075 1.162031 -0.040699
v -0.786889 2.229122 -1.343377
v 1.509949 2.297456 0.030012
v 0.000854 3.354136 0.030012
v -0.746332 2.287045 1.332690
v 0.762763 1.230365 1.332691
v 0.783442 1.172725 -1.308021
v 1.530628 2.239815 -0.005343
v 0.783442 1.172724 1.297335
v 0.036257 0.105633 -0.005343
v -0.024980 0.105351 0.030012
v 0.722205 1.172442 1.332691
v -0.786890 2.229122 1.332690
v -1.534075 1.162031 0.030012
v -1.554753 1.219671 -0.005343
v -0.807568 2.286762 1.297335
v -0.060382 3.353853 -0.005343
v -0.807567 2.286762 -1.308022
v 1.509949 2.297456 -0.040698
v 0.762764 1.230365 -1.343377
v -0.746331 2.287045 -1.343377
v 0.000854 3.354136 -0.040699
vn -0.4214 0.8050 0.4177
vn -0.6624 -0.3468 -0.6640
vn 0.5668 0.8095 -0.1529
vn -0.2415 -0.3448 -0.9071
vn 0.9005 -0.1207 0.4177
vn -0.0993 -0.7411 -0.6640
vn -0.0877 -0.1252 0.9882
vn -0.5203 -0.7430 -0.4210
vn -0.5668 -0.8095 0.1529
vn 0.2415 0.3448 0.9071
vn 0.4214 -0.8050 -0.4177
vn 0.6624 0.3468 0.6640
vn 0.0877 0.1252 -0.9882
vn 0.5203 0.7430 0.4210
vn -0.9005 0.1207 -0.4177
vn 0.0993 0.7411 0.6640
vn -0.8111 -0.1286 0.5706
vn 0.6298 -0.7377 0.2430
vn -0.8111 -0.1286 -0.5706
vn 0.6298 -0.7377 -0.2430
vn -0.1566 0.8062 -0.5706
vn 0.9086 -0.3395 -0.2430
vn -0.1566 0.8062 0.5706
vn 0.9086 -0.3395 0.2430
vn -0.4214 0.8050 -0.4177
vn -0.6624 -0.3468 0.6640
vn -0.0877 -0.1252 -0.9882
vn -0.5203 -0.7430 0.4210
vn 0.9005 -0.1207 -0.4177
vn -0.0993 -0.7411 0.6640
vn 0.5668 0.8095 0.1529
vn -0.2415 -0.3448 0.9071
vn 0.8111 0.1286 -0.5706
vn -0.6298 0.7377 -0.2431
vn 0.1566 -0.8062 -0.5706
vn -0.9086 0.3395 -0.2431
vn 0.1566 -0.8062 0.5706
vn -0.9086 0.3395 0.2431
vn 0.8111 0.1286 0.5706
vn -0.6298 0.7377 0.2430
vn -0.9005 0.1207 0.4177
vn 0.0993 0.7411 -0.6640
vn 0.0877 0.1252 0.9882
vn 0.5203 0.7430 -0.4210
vn 0.4214 -0.8050 0.4177
vn 0.6624 0.3468 -0.6640
vn -0.5668 -0.8095 -0.1529
vn 0.2415 0.3448 -0.9071
usemtl Material
s off
f 17//1 18//1 3//1 1//1
f 18//2 17//2 2//2 4//2
f 18//3 19//3 5//3 3//3
f 19//4 18//4 4//4 6//4
f 19//5 20//5 7//5 5//5
f 20//6 19//6 6//6 8//6
f 20//7 17//7 1//7 7//7
f 17//8 20//8 8//8 2//8
f 21//9 22//9 15//9 9//9
f 22//10 21//10 10//10 16//10
f 22//11 23//11 13//11 15//11
f 23//12 22//12 16//12 14//12
f 23//13 24//13 11//13 13//13
f 24//14 23//14 14//14 12//14
f 24//15 21//15 9//15 11//15
f 21//16 24//16 12//16 10//16
f 25//17 26//17 9//17 1//17
f 26//18 25//18 2//18 10//18
f 26//19 27//19 11//19 9//19
f 27//20 26//20 10//20 12//20
f 27//21 28//21 3//21 11//21
f 28//22 27//22 12//22 4//22
f 28//23 25//23 1//23 3//23
f 25//24 28//24 4//24 2//24
f 29//25 30//25 11//25 3//25
f 30//26 29//26 4//26 12//26
f 30//27 31//27 13//27 11//27
f 31//28 30//28 12//28 14//28
f 31//29 32//29 5//29 13//29
f 32//30 31//30 14//30 6//30
f 32//31 29//31 3//31 5//31
f 29//32 32//32 6//32 4//32
f 33//33 34//33 13//33 5//33
f 34//34 33//34 6//34 14//34
f 34//35 35//35 15//35 13//35
f 35//36 34//36 14//36 16//36
f 35//37 36//37 7//37 15//37
f 36//38 35//38 16//38 8//38
f 36//39 33//39 5//39 7//39
f 33//40 36//40 8//40 6//40
f 37//41 38//41 1//41 9//41
f 38//42 37//42 10//42 2//42
f 38//43 39//43 7//43 1//43
f 39//44 38//44 2//44 8//44
f 39//45 40//45 15//45 7//45
f 40//46 39//46 8//46 16//46
f 40//47 37//47 9//47 15//47
f 37//48 40//48 16//48 10//48
